<svg xmlns="http://www.w3.org/2000/svg" width="100" height="100"><rect width="100%" height="100%" fill="none"/><g class="currentLayer"><g class="selected" stroke="#fff" fill="#fff"><path d="M71.393 26.598c-.811-6.427-5.848-12.63-12.393-13.566-3.385-.484-6.222.576-7.762 1.311v53.41c-2.469-1.286-5.5-2.054-8.789-2.054-8.261 0-14.959 4.788-14.959 10.695 0 5.906 6.697 10.695 14.959 10.695s14.959-4.788 14.959-10.695V29.749c.859-.883 1.611-1.133 2.167-1.182 2.753-.242 5.987 3.976 7.879 10.637.856-1.029 4.777-5.964 3.939-12.606z"/><path d="M57.574 27.568a3.692 3.692 0 0 0-.97.278c-.365.179-.768.462-1.197.904v46.645c0 5.906-6.697 10.695-14.959 10.695-2.774 0-5.362-.549-7.589-1.49 2.597 1.553 5.939 2.49 9.589 2.49 8.261 0 14.959-4.788 14.959-10.695V29.75a4.442 4.442 0 0 1 2.167-1.182 4.436 4.436 0 0 1 2.227.092 7.037 7.037 0 0 0-1.484-.742c-.546-.195-1.541-.539-2.743-.35zm13.819-.97c-.688-5.456-4.427-10.736-9.542-12.784 4.072 2.482 6.947 7.068 7.542 11.784.619 4.91-1.36 8.882-2.782 11.038.302.809.585 1.664.842 2.568.857-1.029 4.778-5.964 3.94-12.606z"/><path d="M71.393 26.598c-.811-6.427-5.848-12.63-12.393-13.566-3.385-.484-6.222.576-7.762 1.311v53.41c-2.469-1.286-5.5-2.054-8.789-2.054-8.261 0-14.959 4.788-14.959 10.695 0 5.906 6.697 10.695 14.959 10.695s14.959-4.788 14.959-10.695V29.749c.859-.883 1.611-1.133 2.167-1.182 2.753-.242 5.987 3.976 7.879 10.637.856-1.029 4.777-5.964 3.939-12.606z" stroke-miterlimit="10"/></g></g></svg>