<?xml version="1.0" standalone="no"?>
<!DOCTYPE svg PUBLIC "-//W3C//DTD SVG 20010904//EN"
 "http://www.w3.org/TR/2001/REC-SVG-20010904/DTD/svg10.dtd">
<svg version="1.0" xmlns="http://www.w3.org/2000/svg"
 width="180.000000pt" height="180.000000pt" viewBox="0 0 180.000000 180.000000"
 preserveAspectRatio="xMidYMid meet">
<metadata>
Created by potrace 1.11, written by Peter Selinger 2001-2013
</metadata>
<g transform="translate(0.000000,180.000000) scale(0.100000,-0.100000)"
fill="#000000" stroke="none">
<path d="M214 1586 c-18 -14 -19 -34 -22 -669 -2 -634 -2 -655 17 -678 l19
-24 665 0 c640 0 666 1 686 19 21 19 21 21 21 670 0 574 -2 654 -16 674 l-15
22 -668 0 c-560 0 -670 -2 -687 -14z m1166 -103 c-80 -42 -210 -111 -290 -153
-110 -59 -149 -75 -162 -68 -23 11 -58 -7 -58 -30 0 -13 -82 -61 -312 -183
-171 -90 -315 -165 -320 -167 -4 -2 -8 150 -8 337 l0 341 648 0 647 0 -145
-77z m175 -1221 c-3 -9 -76 -12 -315 -12 -170 0 -310 3 -310 8 -1 4 90 190
202 414 153 308 207 408 222 410 28 4 44 34 30 55 -9 15 5 51 80 201 l91 183
3 -623 c1 -343 0 -629 -3 -636z m-116 1225 c-165 -127 -784 -571 -793 -568
-34 11 -43 11 -61 -2 -10 -8 -20 -28 -20 -43 -2 -25 -23 -45 -169 -152 l-167
-122 3 130 3 131 320 169 c249 131 324 166 337 159 19 -10 57 4 59 21 1 6 2
15 3 20 1 9 481 269 496 269 3 0 -2 -5 -11 -12z m-84 -116 c-66 -66 -284 -279
-484 -475 -350 -342 -366 -356 -402 -356 -45 0 -74 -32 -64 -71 5 -20 -9 -39
-85 -114 l-90 -90 1 160 0 160 170 123 c145 105 174 122 197 117 35 -7 66 15
67 49 1 23 55 67 401 321 219 161 401 294 404 294 3 1 -49 -53 -115 -118z m92
47 c-351 -474 -377 -508 -400 -508 -35 0 -60 -32 -53 -67 6 -25 -18 -61 -202
-308 l-208 -280 -174 -3 -175 -2 93 93 c83 83 96 93 123 89 41 -6 71 22 67 64
-2 30 26 60 487 513 270 264 491 480 493 481 1 0 -21 -33 -51 -72z m-9 -98
c-54 -113 -78 -154 -97 -163 -21 -10 -26 -20 -26 -49 0 -28 -50 -137 -205
-448 l-205 -410 -152 0 -153 0 91 123 c50 67 143 193 207 280 101 136 120 157
144 157 35 0 60 34 48 65 -8 20 19 61 203 309 117 157 213 286 214 286 1 0
-30 -68 -69 -150z"/>
</g>
</svg>
